# xmcd
#
# Track frame offsets:
#	150
#	15238
#	29644
#	42663
#	58731
#	76642
#	95854
#	112355
#	135131
#	153158
#	171393
#	190061
#	209520
#	226011
#
# Disc length: 3267 seconds
#
# Revision: 0
# Processed by: cddbd v1.5.2PL0 Copyright (c) Steve Scherf et al.
# Submitted via: audiograbber 1.83.01
#
DISCID=b60cc10e
DTITLE=The Damn Quails: - Down the Hatch
DYEAR=2011
DGENRE=Country
TTITLE0=Better Place To Stop
TTITLE1=Midnight Swagger
TTITLE2=Through The Fire
TTITLE3=Another Story
TTITLE4=Quicksand
TTITLE5=Fool's Gold
TTITLE6=Parachute
TTITLE7=California Open Invitation
TTITLE8=So So Long
TTITLE9=Mary
TTITLE10=Me And The Whiskey
TTITLE11=Iceman
TTITLE12=Down
TTITLE13=Dollars
EXTD=
EXTT0=
EXTT1=
EXTT2=
EXTT3=
EXTT4=
EXTT5=
EXTT6=
EXTT7=
EXTT8=
EXTT9=
EXTT10=
EXTT11=
EXTT12=
EXTT13=
PLAYORDER=
